<?xml version="1.0" encoding="utf-8"?>
<!-- Generator: Adobe Illustrator 20.1.0, SVG Export Plug-In . SVG Version: 6.00 Build 0)  -->
<svg version="1.1" id="Layer_1" xmlns="http://www.w3.org/2000/svg" xmlns:xlink="http://www.w3.org/1999/xlink" x="0px" y="0px"
	 viewBox="0 0 144 60" style="enable-background:new 0 0 144 60;" xml:space="preserve">
<style type="text/css">
	.st0{fill:#99CC33;}
</style>
<title>logo-mervin-blackArtboard 1</title>
<path class="st0" d="M65.2,59.7c0,0,3.7-13.2,4.2-15.7s1.7-7.3,2.8-7.2s7.9,3.7,9.1,3.7s2.7-0.2,3.1-1.2c0.5-1.7,0.8-3.5,0.9-5.2
	c0.1-0.7,0.4-4.4,0.4-4.4l-18.1,0.1c0,0,15.3-7.1,16.5-9.7c0,0-10.5,0.3-10.9,0.4S87.2,8.5,89.8,1c0,0,9.2,16.8,15.1,18.9L94.1,20
	c0,0,8.9,6.9,18.7,10l-20.3-0.2c0,0,0.1,9.3-1,13.2s-3.1,7.4-5.4,7.2S76,46.7,76,46.7s-1.5,0-2.1,2.4s1,10.4,1,10.4L65.2,59.7z"/>
<path class="st0" d="M14.1,34.4v17.3h-3.9V40L8.6,51.7H5.8L4.2,40.3v11.4H0.2V34.4H6c0.2,1,0.4,2.3,0.5,3.7l0.6,4.4l1-8.1H14.1z"/>
<path class="st0" d="M15.9,34.4h7.5v3.5h-3v3.3h2.8v3.3h-2.8v3.8h3.3v3.4h-7.8V34.4z"/>
<path class="st0" d="M25,34.4h3.2c1.4,0,2.9,0,4.3,0.2c0.8,0.2,1.4,0.6,1.8,1.3c0.6,1,0.8,2.1,0.7,3.2c0.1,0.9-0.1,1.9-0.5,2.7
	c-0.5,0.5-1.2,0.9-2,0.8c0.7,0.1,1.3,0.4,1.8,0.9c0.3,0.3,0.5,0.6,0.6,1c0.1,0.8,0.1,1.7,0.1,2.6v4.6h-4.1V46c0.1-0.6,0-1.2-0.2-1.7
	c-0.1-0.2-0.5-0.3-1.1-0.3v7.8H25V34.4z M29.5,37.4v3.8c0.4,0,0.8-0.1,1.1-0.2c0.2-0.1,0.3-0.6,0.3-1.3v-1c0.1-0.4-0.1-0.8-0.3-1.1
	C30.3,37.4,29.9,37.3,29.5,37.4L29.5,37.4z"/>
<path class="st0" d="M47.5,34.4l-2.3,17.3h-6.8l-2.6-17.3h4.8c0.6,4.8,0.9,8.8,1.2,12.1c0.2-3.3,0.5-6.3,0.7-8.9l0.3-3.2H47.5z"/>
<path class="st0" d="M52.8,34.4v17.3h-4.5V34.4H52.8z"/>
<path class="st0" d="M64.7,34.4v17.3h-4l-2.3-7.9v7.9h-3.8V34.4h3.8l2.5,7.8v-7.8H64.7z"/>
<path class="st0" d="M109.2,34.4v17.3h-3.9V40l-1.6,11.7h-2.8l-1.7-11.4v11.4h-3.9V34.4h5.8c0.2,1,0.4,2.3,0.5,3.7l0.6,4.4l1-8.1
	H109.2z"/>
<path class="st0" d="M118.8,34.4l2.6,17.3h-4.6l-0.2-3.1H115l-0.3,3.1H110l2.3-17.3H118.8z M116.4,45.5c-0.2-2-0.5-4.4-0.7-7.3
	c-0.5,3.3-0.7,5.8-0.9,7.3H116.4z"/>
<path class="st0" d="M122.2,34.4h3.4c1.5-0.1,3,0,4.4,0.3c0.7,0.1,1.3,0.5,1.8,1c0.4,0.4,0.6,1,0.8,1.5c0.1,1.1,0.2,2.2,0.1,3.3v6.1
	c0,1,0,2.1-0.2,3.1c-0.1,0.5-0.4,0.9-0.8,1.2c-0.4,0.3-0.9,0.5-1.4,0.6c-0.8,0.1-1.6,0.2-2.4,0.2h-5.7L122.2,34.4z M126.7,37.4v11.4
	c0.7,0,1-0.1,1.2-0.4c0.2-0.7,0.3-1.4,0.2-2.1v-6.7c0-0.5,0-1-0.1-1.5c0-0.2-0.2-0.4-0.3-0.5C127.3,37.4,127,37.3,126.7,37.4
	L126.7,37.4z"/>
<path class="st0" d="M134.3,34.4h7.5v3.5h-3v3.3h2.8v3.3h-2.8v3.8h3.3v3.4h-7.8L134.3,34.4z"/>
<rect x="0.3" y="54.8" class="st0" width="63.2" height="2.7"/>
<rect x="77.1" y="54.8" class="st0" width="65" height="2.7"/>
</svg>
