<?xml version="1.0" standalone="no"?>
<!DOCTYPE svg PUBLIC "-//W3C//DTD SVG 20010904//EN"
 "http://www.w3.org/TR/2001/REC-SVG-20010904/DTD/svg10.dtd">
<svg version="1.0" xmlns="http://www.w3.org/2000/svg"
 width="260.000000pt" height="260.000000pt" viewBox="0 0 260.000000 260.000000"
 preserveAspectRatio="xMidYMid meet">
<metadata>
Created by potrace 1.11, written by Peter Selinger 2001-2013
</metadata>
<g transform="translate(0.000000,260.000000) scale(0.100000,-0.100000)"
fill="#000000" stroke="none">
<path d="M485 2588 c-29 -17 -460 -449 -474 -475 -6 -12 -11 -29 -11 -38 0
-10 84 -103 187 -209 153 -156 195 -205 227 -265 101 -190 102 -418 3 -606
-23 -44 -82 -112 -224 -256 -157 -160 -193 -202 -193 -224 0 -23 42 -71 243
-272 206 -207 246 -243 271 -243 25 0 59 29 210 179 269 266 345 306 581 306
227 -1 300 -40 566 -302 116 -114 194 -183 206 -183 11 0 33 10 48 22 39 31
445 439 462 465 9 14 12 31 8 45 -4 13 -85 102 -180 198 -97 98 -191 203 -214
239 -117 182 -126 428 -23 626 30 57 72 106 229 266 141 143 193 203 193 220
0 34 -485 519 -519 519 -18 0 -72 -47 -205 -178 -182 -180 -232 -220 -317
-260 -116 -53 -286 -67 -414 -33 -149 38 -215 84 -415 286 -139 140 -192 186
-217 185 -4 0 -17 -6 -28 -12z"/>
</g>
</svg>
